# This file uses centimeters as units for non-parametric coordinates.

mtllib grave2T.mtl
g default
v 0.905262 0.505455 -1.171623
v 0.905262 0.014731 -1.171623
v 0.905262 0.505455 1.171623
v 0.905262 0.014731 1.171623
v -0.905262 0.505455 -1.171623
v -0.905262 0.014731 -1.171623
v -0.905262 0.505455 1.171623
v -0.905262 0.014731 1.171623
v 0.367427 0.565160 0.811339
v -0.367427 0.565160 0.811339
v 0.367427 0.565160 -0.811339
v -0.367427 0.565160 -0.811339
v 0.367427 1.061933 0.811339
v -0.367427 1.061933 0.811339
v 0.367427 1.061933 -0.811339
v -0.367427 1.061933 -0.811339
v 0.177354 1.088388 0.214566
v -0.177354 1.088388 0.214566
v 0.177354 1.088388 -0.214566
v -0.177354 1.088388 -0.214566
v 0.177354 2.962472 0.214566
v -0.177354 2.962472 0.214566
v 0.177354 2.962472 -0.214566
v -0.177354 2.962472 -0.214566
v 0.177354 2.982900 0.845651
v -0.177354 2.982900 0.845651
v 0.177354 2.982900 -0.845651
v -0.177354 2.982900 -0.845651
v 0.177354 3.327829 0.845651
v -0.177354 3.327829 0.845651
v 0.177354 3.327829 -0.845651
v -0.177354 3.327829 -0.845651
v 0.177354 3.339139 0.218707
v -0.177354 3.339139 0.218707
v 0.177354 3.339139 -0.218707
v -0.177354 3.339139 -0.218707
v 0.177354 4.042412 0.218707
v -0.177354 4.042412 0.218707
v 0.177354 4.042412 -0.218707
v -0.177354 4.042412 -0.218707
vt 0.850291 0.001992
vt 0.928534 0.001992
vt 0.850291 0.375606
vt 0.928534 0.375606
vt 0.573562 0.379391
vt 0.651804 0.379391
vt 0.573562 0.753004
vt 0.651804 0.753004
vt 0.072687 0.735499
vt 0.072687 0.476775
vt 0.151894 0.735499
vt 0.151894 0.476775
vt 0.001889 0.998008
vt 0.001889 0.739284
vt 0.081096 0.998008
vt 0.081096 0.739284
vt 0.102511 0.001992
vt 0.170933 0.001992
vt 0.102511 0.300801
vt 0.170933 0.300801
vt 0.001889 0.304058
vt 0.271555 0.304058
vt 0.001889 0.359055
vt 0.271555 0.359055
vt 0.101851 0.360858
vt 0.171593 0.360858
vt 0.101851 0.472990
vt 0.171593 0.472990
vt 0.378043 0.001992
vt 0.446465 0.001992
vt 0.378043 0.300801
vt 0.446465 0.300801
vt 0.277421 0.304058
vt 0.547087 0.304058
vt 0.277421 0.359055
vt 0.547087 0.359055
vt 0.377383 0.360858
vt 0.447125 0.360858
vt 0.377383 0.472990
vt 0.447125 0.472990
vt 0.843291 0.375606
vt 0.554616 0.375606
vt 0.757537 0.318161
vt 0.640370 0.318161
vt 0.757537 0.059437
vt 0.554616 0.001992
vt 0.843291 0.001992
vt 0.640370 0.059437
vt 0.657622 0.379391
vt 0.946297 0.379391
vt 0.657622 0.753004
vt 0.946297 0.753004
vt 0.274879 0.476775
vt 0.274879 0.735499
vt 0.244573 0.571926
vt 0.244573 0.640348
vt 0.188017 0.571926
vt 0.157712 0.735499
vt 0.157712 0.476775
vt 0.188017 0.640348
vt 0.443007 0.869856
vt 0.386451 0.869856
vt 0.443007 0.769234
vt 0.386451 0.769234
vt 0.449282 0.779369
vt 0.505838 0.779369
vt 0.449282 0.879991
vt 0.505838 0.879991
vt 0.512113 0.779369
vt 0.568669 0.779369
vt 0.512113 0.879330
vt 0.568669 0.879330
vt 0.631500 0.856751
vt 0.574944 0.856751
vt 0.631500 0.756789
vt 0.574944 0.756789
vt 0.694330 0.826532
vt 0.637775 0.826532
vt 0.694330 0.756789
vt 0.637775 0.756789
vt 0.364756 0.476775
vt 0.442998 0.476775
vt 0.364756 0.765450
vt 0.442998 0.765450
vt 0.358939 0.765450
vt 0.280696 0.765450
vt 0.358939 0.476775
vt 0.280696 0.476775
vt 0.166287 0.739284
vt 0.166287 0.856451
vt 0.087080 0.739284
vt 0.087080 0.856451
vt 0.173935 0.856451
vt 0.173935 0.739284
vt 0.253142 0.856451
vt 0.253142 0.739284
vt 0.511189 0.476775
vt 0.567745 0.476775
vt 0.511189 0.775584
vt 0.567745 0.775584
vt 0.505372 0.775584
vt 0.448816 0.775584
vt 0.505372 0.476775
vt 0.448816 0.476775
vt 0.700606 0.813345
vt 0.700606 0.756789
vt 0.755602 0.813345
vt 0.755602 0.756789
vt 0.816585 0.756789
vt 0.816585 0.813345
vt 0.761589 0.756789
vt 0.761589 0.813345
vt 0.317345 0.881366
vt 0.260789 0.881366
vt 0.317345 0.769234
vt 0.260789 0.769234
vt 0.323620 0.769234
vt 0.380176 0.769234
vt 0.323620 0.881366
vt 0.380176 0.881366
vn 0.000000 0.986542 -0.163507
vn 0.000000 0.986542 -0.163507
vn 0.000000 0.986542 -0.163507
vn 0.000000 0.986542 -0.163507
vn 0.000000 0.000000 1.000000
vn 0.000000 0.000000 1.000000
vn 0.000000 0.000000 1.000000
vn 0.000000 0.000000 1.000000
vn -1.000000 0.000000 0.000000
vn -1.000000 0.000000 0.000000
vn -1.000000 0.000000 0.000000
vn -1.000000 0.000000 0.000000
vn 0.000000 -1.000000 0.000000
vn 0.000000 -1.000000 0.000000
vn 0.000000 -1.000000 0.000000
vn 0.000000 -1.000000 0.000000
vn 1.000000 0.000000 0.000000
vn 1.000000 0.000000 0.000000
vn 1.000000 0.000000 0.000000
vn 1.000000 0.000000 0.000000
vn 0.000000 0.000000 -1.000000
vn 0.000000 0.000000 -1.000000
vn 0.000000 0.000000 -1.000000
vn 0.000000 0.000000 -1.000000
vn 0.000000 0.000000 -1.000000
vn 0.000000 0.000000 -1.000000
vn 0.000000 0.000000 -1.000000
vn 0.000000 0.000000 -1.000000
vn 0.000000 0.986542 0.163507
vn 0.000000 0.986542 0.163507
vn 0.000000 0.986542 0.163507
vn 0.000000 0.986542 0.163507
vn -0.110300 0.993898 0.000000
vn -0.110300 0.993898 0.000000
vn -0.110300 0.993898 0.000000
vn -0.110300 0.993898 0.000000
vn 0.110300 0.993898 0.000000
vn 0.110300 0.993898 0.000000
vn 0.110300 0.993898 0.000000
vn 0.110300 0.993898 0.000000
vn 0.137893 0.990447 0.000000
vn 0.137893 0.990447 0.000000
vn 0.137893 0.990447 0.000000
vn 0.137893 0.990447 0.000000
vn 1.000000 0.000000 0.000000
vn 1.000000 0.000000 0.000000
vn 1.000000 0.000000 0.000000
vn 1.000000 0.000000 0.000000
vn -1.000000 0.000000 0.000000
vn -1.000000 0.000000 0.000000
vn -1.000000 0.000000 0.000000
vn -1.000000 0.000000 0.000000
vn 0.000000 0.000000 1.000000
vn 0.000000 0.000000 1.000000
vn 0.000000 0.000000 1.000000
vn 0.000000 0.000000 1.000000
vn -1.000000 0.000000 0.000000
vn -1.000000 0.000000 0.000000
vn -1.000000 0.000000 0.000000
vn -1.000000 0.000000 0.000000
vn -0.137893 0.990447 0.000000
vn -0.137893 0.990447 0.000000
vn -0.137893 0.990447 0.000000
vn -0.137893 0.990447 0.000000
vn 0.000000 0.999018 0.044301
vn 0.000000 0.999018 0.044301
vn 0.000000 0.999018 0.044301
vn 0.000000 0.999018 0.044301
vn 0.000000 0.999018 -0.044301
vn 0.000000 0.999018 -0.044301
vn 0.000000 0.999018 -0.044301
vn 0.000000 0.999018 -0.044301
vn 0.000000 -0.999475 -0.032399
vn 0.000000 -0.999475 -0.032399
vn 0.000000 -0.999475 -0.032399
vn 0.000000 -0.999475 -0.032399
vn 0.000000 0.000000 1.000000
vn 0.000000 0.000000 1.000000
vn 0.000000 0.000000 1.000000
vn 0.000000 0.000000 1.000000
vn 0.000000 0.000000 -1.000000
vn 0.000000 0.000000 -1.000000
vn 0.000000 0.000000 -1.000000
vn 0.000000 0.000000 -1.000000
vn 1.000000 0.000000 0.000000
vn 1.000000 0.000000 0.000000
vn 1.000000 0.000000 0.000000
vn 1.000000 0.000000 0.000000
vn -1.000000 0.000000 0.000000
vn -1.000000 0.000000 0.000000
vn -1.000000 0.000000 0.000000
vn -1.000000 0.000000 0.000000
vn 1.000000 0.000000 0.000000
vn 1.000000 0.000000 0.000000
vn 1.000000 0.000000 0.000000
vn 1.000000 0.000000 0.000000
vn -1.000000 0.000000 0.000000
vn -1.000000 0.000000 0.000000
vn -1.000000 0.000000 0.000000
vn -1.000000 0.000000 0.000000
vn 0.000000 -0.999475 0.032399
vn 0.000000 -0.999475 0.032399
vn 0.000000 -0.999475 0.032399
vn 0.000000 -0.999475 0.032399
vn -1.000000 0.000000 0.000000
vn -1.000000 0.000000 0.000000
vn -1.000000 0.000000 0.000000
vn -1.000000 0.000000 0.000000
vn 0.000000 0.000000 1.000000
vn 0.000000 0.000000 1.000000
vn 0.000000 0.000000 1.000000
vn 0.000000 0.000000 1.000000
vn 0.000000 0.000000 -1.000000
vn 0.000000 0.000000 -1.000000
vn 0.000000 0.000000 -1.000000
vn 0.000000 0.000000 -1.000000
vn 1.000000 0.000000 0.000000
vn 1.000000 0.000000 0.000000
vn 1.000000 0.000000 0.000000
vn 1.000000 0.000000 0.000000
vn 0.000000 0.000000 -1.000000
vn 0.000000 0.000000 -1.000000
vn 0.000000 0.000000 -1.000000
vn 0.000000 0.000000 -1.000000
vn 0.000000 0.999838 0.018001
vn 0.000000 0.999838 0.018001
vn 0.000000 0.999838 0.018001
vn 0.000000 0.999838 0.018001
vn 0.000000 0.999838 -0.018001
vn 0.000000 0.999838 -0.018001
vn 0.000000 0.999838 -0.018001
vn 0.000000 0.999838 -0.018001
vn 1.000000 0.000000 0.000000
vn 1.000000 0.000000 0.000000
vn 1.000000 0.000000 0.000000
vn 1.000000 0.000000 0.000000
vn 0.000000 1.000000 0.000000
vn 0.000000 1.000000 0.000000
vn 0.000000 1.000000 0.000000
vn 0.000000 1.000000 0.000000
vn 1.000000 0.000000 0.000000
vn 1.000000 0.000000 0.000000
vn 1.000000 0.000000 0.000000
vn 1.000000 0.000000 0.000000
vn -1.000000 0.000000 0.000000
vn -1.000000 0.000000 0.000000
vn -1.000000 0.000000 0.000000
vn -1.000000 0.000000 0.000000
vn 0.000000 0.000000 1.000000
vn 0.000000 0.000000 1.000000
vn 0.000000 0.000000 1.000000
vn 0.000000 0.000000 1.000000
s 1
g grave2:Mesh
usemtl grave2:Material
f 1/41/1 5/42/2 11/43/3
f 11/43/3 5/42/2 12/44/4
s 2
f 4/81/5 3/82/6 8/83/7
f 8/83/7 3/82/6 7/84/8
s 3
f 8/1/9 7/2/10 6/3/11
f 6/3/11 7/2/10 5/4/12
s 4
f 6/49/13 2/50/14 8/51/15
f 8/51/15 2/50/14 4/52/16
s 5
f 2/5/17 1/6/18 4/7/19
f 4/7/19 1/6/18 3/8/20
s 6
f 6/85/21 5/86/22 2/87/23
f 2/87/23 5/86/22 1/88/24
s 7
f 11/89/25 12/90/26 15/91/27
f 15/91/27 12/90/26 16/92/28
s 8
f 7/46/29 3/47/30 10/48/31
f 10/48/31 3/47/30 9/45/32
s 9
f 5/42/33 7/46/34 12/44/35
f 12/44/35 7/46/34 10/48/36
s 10
f 3/47/37 1/41/38 9/45/39
f 9/45/39 1/41/38 11/43/40
s 11
f 13/53/41 15/54/42 17/55/43
f 17/55/43 15/54/42 19/56/44
s 12
f 9/9/45 11/10/46 13/11/47
f 13/11/47 11/10/46 15/12/48
s 13
f 12/13/49 10/14/50 16/15/51
f 16/15/51 10/14/50 14/16/52
s 14
f 10/93/53 9/94/54 14/95/55
f 14/95/55 9/94/54 13/96/56
s 15
f 20/17/57 18/18/58 24/19/59
f 24/19/59 18/18/58 22/20/60
s 16
f 16/58/61 14/59/62 20/60/63
f 20/60/63 14/59/62 18/57/64
s 17
f 14/59/65 13/53/66 18/57/67
f 18/57/67 13/53/66 17/55/68
s 18
f 15/54/69 16/58/70 19/56/71
f 19/56/71 16/58/70 20/60/72
s 19
f 23/61/73 24/62/74 27/63/75
f 27/63/75 24/62/74 28/64/76
s 20
f 18/97/77 17/98/78 22/99/79
f 22/99/79 17/98/78 21/100/80
s 21
f 19/101/81 20/102/82 23/103/83
f 23/103/83 20/102/82 24/104/84
s 22
f 17/29/85 19/30/86 21/31/87
f 21/31/87 19/30/86 23/32/88
s 23
f 28/21/89 26/22/90 32/23/91
f 32/23/91 26/22/90 30/24/92
s 24
f 21/31/93 23/32/94 25/33/95
f 25/33/95 23/32/94 27/34/96
s 25
f 24/19/97 22/20/98 28/21/99
f 28/21/99 22/20/98 26/22/100
s 26
f 22/65/101 21/66/102 26/67/103
f 26/67/103 21/66/102 25/68/104
s 27
f 32/23/105 30/24/106 36/25/107
f 36/25/107 30/24/106 34/26/108
s 28
f 26/105/109 25/106/110 30/107/111
f 30/107/111 25/106/110 29/108/112
s 29
f 27/109/113 28/110/114 31/111/115
f 31/111/115 28/110/114 32/112/116
s 30
f 25/33/117 27/34/118 29/35/119
f 29/35/119 27/34/118 31/36/120
s 31
f 35/113/121 36/114/122 39/115/123
f 39/115/123 36/114/122 40/116/124
s 32
f 30/69/125 29/70/126 34/71/127
f 34/71/127 29/70/126 33/72/128
s 33
f 31/73/129 32/74/130 35/75/131
f 35/75/131 32/74/130 36/76/132
s 34
f 29/35/133 31/36/134 33/37/135
f 33/37/135 31/36/134 35/38/136
s 35
f 39/77/137 40/78/138 37/79/139
f 37/79/139 40/78/138 38/80/140
s 36
f 33/37/141 35/38/142 37/39/143
f 37/39/143 35/38/142 39/40/144
s 37
f 36/25/145 34/26/146 40/27/147
f 40/27/147 34/26/146 38/28/148
s 38
f 34/117/149 33/118/150 38/119/151
f 38/119/151 33/118/150 37/120/152
