# Blender v2.82 (sub 7) OBJ File: 'grave1.blend'
# www.blender.org
mtllib grave1.mtl
o Cube
v 0.498044 0.654184 -1.000000
v 0.498044 0.003608 -1.000000
v 0.498044 0.654184 1.000000
v 0.498044 0.003608 1.000000
v -0.498044 0.654184 -1.000000
v -0.498044 0.003608 -1.000000
v -0.498044 0.654184 1.000000
v -0.498044 0.003608 1.000000
v 0.171827 0.695314 1.000000
v -0.171827 0.695314 1.000000
v 0.171827 0.695314 -1.000000
v -0.171827 0.695314 -1.000000
v 0.171827 1.181009 1.000000
v -0.171827 1.181009 1.000000
v 0.171827 1.181009 -1.000000
v -0.171827 1.181009 -1.000000
v 0.171827 2.521270 1.000000
v 0.093814 2.599283 0.921987
v -0.093814 2.599283 0.921987
v -0.171827 2.521270 1.000000
v 0.171827 2.521270 -1.000000
v 0.093814 2.599283 -0.921987
v -0.093814 2.599283 -0.921987
v -0.171827 2.521270 -1.000000
v 0.160391 0.766704 -0.929047
v 0.160391 0.766704 0.929047
v 0.160391 1.207401 -0.929047
v 0.160391 1.207401 0.929047
v 0.160391 2.423488 0.929047
v 0.160391 2.423488 -0.929047
v 0.131924 0.792267 -0.895078
v 0.131924 0.792267 0.895078
v 0.131924 1.216851 -0.895078
v 0.131924 1.216851 0.895078
v 0.131924 2.388475 0.895078
v 0.131924 2.388475 -0.895078
vt 0.625000 0.250000
vt 0.625000 0.000000
vt 0.625000 0.000000
vt 0.625000 0.250000
vt 0.375000 0.750000
vt 0.625000 0.750000
vt 0.625000 1.000000
vt 0.375000 1.000000
vt 0.375000 0.000000
vt 0.375000 0.250000
vt 0.125000 0.500000
vt 0.375000 0.500000
vt 0.125000 0.750000
vt 0.625000 0.500000
vt 0.625000 0.500000
vt 0.625000 0.250000
vt 0.625000 0.500000
vt 0.625000 0.750000
vt 0.625000 1.000000
vt 0.625000 0.250000
vt 0.625000 0.500000
vt 0.625000 0.500000
vt 0.625000 0.750000
vt 0.625000 0.000000
vt 0.625000 0.750000
vt 0.625000 1.000000
vt 0.625000 0.750000
vt 0.681752 0.509752
vt 0.818248 0.509752
vt 0.818248 0.740248
vt 0.681752 0.740248
vt 0.625000 0.000000
vt 0.875000 0.750000
vt 0.625000 0.750000
vt 0.875000 0.500000
vt 0.625000 1.000000
vt 0.625000 0.500000
vt 0.625000 0.750000
vt 0.625000 0.500000
vt 0.625000 0.500000
vt 0.625000 0.500000
vt 0.625000 0.750000
vt 0.625000 0.750000
vt 0.625000 0.500000
vt 0.625000 0.750000
vn -0.1251 0.9921 0.0000
vn 0.0000 0.0000 1.0000
vn -1.0000 0.0000 0.0000
vn 0.0000 -1.0000 0.0000
vn 1.0000 0.0000 0.0000
vn 0.0000 0.0000 -1.0000
vn 0.1251 0.9921 0.0000
vn 0.9874 0.1582 0.0000
vn 0.9873 0.0000 -0.1591
vn 0.0000 1.0000 0.0000
vn 0.0000 0.7071 0.7071
vn 0.7071 0.7071 0.0000
vn -0.7071 0.7071 0.0000
vn 0.0000 0.7071 -0.7071
vn 0.6681 0.7440 0.0000
vn 0.7664 0.0000 0.6423
vn 0.9873 0.0000 0.1591
vn 0.9932 -0.1162 0.0000
vn 0.7664 0.0000 -0.6423
vn 0.7759 -0.6308 0.0000
usemtl Material
s off
f 5/1/1 7/2/1 10/3/1 12/4/1
f 4/5/2 3/6/2 7/7/2 8/8/2
f 8/9/3 7/2/3 5/1/3 6/10/3
f 6/11/4 2/12/4 4/5/4 8/13/4
f 2/12/5 1/14/5 3/6/5 4/5/5
f 6/10/6 5/1/6 1/14/6 2/12/6
f 11/15/6 12/4/6 16/16/6 15/17/6
f 3/6/7 1/14/7 11/15/7 9/18/7
f 1/14/6 5/1/6 12/4/6 11/15/6
f 7/7/2 3/6/2 9/18/2 10/19/2
f 15/17/6 16/16/6 24/20/6 21/21/6
f 9/18/8 11/15/8 25/22/8 26/23/8
f 12/4/3 10/3/3 14/24/3 16/16/3
f 10/19/2 9/18/2 13/25/2 14/26/2
f 13/25/9 9/18/9 26/23/9 28/27/9
f 22/28/10 23/29/10 19/30/10 18/31/10
f 16/16/3 14/24/3 20/32/3 24/20/3
f 18/31/11 19/30/11 20/33/11 17/34/11
f 22/28/12 18/31/12 17/34/12 21/21/12
f 19/30/13 23/29/13 24/35/13 20/33/13
f 23/29/14 22/28/14 21/21/14 24/35/14
f 14/26/2 13/25/2 17/34/2 20/36/2
f 26/23/15 25/22/15 31/37/15 32/38/15
f 25/22/16 27/39/16 33/40/16 31/37/16
f 15/17/17 21/21/17 30/41/17 27/39/17
f 11/15/17 15/17/17 27/39/17 25/22/17
f 21/21/18 17/34/18 29/42/18 30/41/18
f 17/34/9 13/25/9 28/27/9 29/42/9
f 32/38/5 31/37/5 33/40/5 34/43/5
f 34/43/5 33/40/5 36/44/5 35/45/5
f 29/42/19 28/27/19 34/43/19 35/45/19
f 28/27/19 26/23/19 32/38/19 34/43/19
f 27/39/16 30/41/16 36/44/16 33/40/16
f 30/41/20 29/42/20 35/45/20 36/44/20
