# This file uses centimeters as units for non-parametric coordinates.

mtllib triangleGhost.mtl
g default
v 0.636734 2.080448 0.214818
v 0.466433 1.968930 -0.058932
v 0.171151 1.904478 -0.217148
v -0.169990 1.904361 -0.217436
v -0.465583 1.968610 -0.059719
v -0.636423 2.080010 0.213742
v -0.636734 2.208712 0.529675
v -0.466433 2.320229 0.803424
v -0.171151 2.384682 0.961640
v 0.169990 2.384799 0.961928
v 0.465583 2.320550 0.804212
v 0.636423 2.209150 0.530750
v 0.819383 4.226584 -0.218752
v 0.600231 4.226584 -0.599137
v 0.220247 4.226584 -0.818983
v -0.218752 4.226584 -0.819383
v -0.599137 4.226584 -0.600231
v -0.818983 4.226584 -0.220247
v -0.819383 4.226584 0.218752
v -0.600231 4.226584 0.599137
v -0.220247 4.226584 0.818983
v 0.218752 4.226584 0.819383
v 0.599137 4.226584 0.600231
v 0.818983 4.226584 0.220247
v 0.000000 1.239973 2.231765
v 0.000000 4.896874 0.000000
v -0.236265 3.055771 -0.884982
v 0.237879 3.055771 -0.884549
v 0.648284 3.055771 -0.647102
v 0.884982 3.055771 -0.236265
v 0.884549 3.055771 0.237879
v 0.647102 3.055771 0.648284
v 0.236265 3.055771 0.884982
v -0.237879 3.055771 0.884549
v -0.648284 3.055771 0.647102
v -0.884982 3.055771 0.236265
v -0.884549 3.055771 -0.237879
v -0.647102 3.055771 -0.648284
v -0.243025 2.710768 -0.910301
v 0.244685 2.710768 -0.909856
v 0.666831 2.710768 -0.665616
v 0.910301 2.710768 -0.243025
v 0.909856 2.710768 0.244685
v 0.665616 2.710768 0.666831
v 0.243025 2.710768 0.910301
v -0.244685 2.710768 0.909856
v -0.666831 2.710768 0.665616
v -0.910301 2.710768 0.243025
v -0.909856 2.710768 -0.244685
v -0.665616 2.710768 -0.666831
v -1.286045 2.701193 -0.600329
v -1.101913 2.701193 -0.898029
v -1.265896 2.946753 -0.594911
v -1.086885 2.946753 -0.884329
v 0.575029 2.777087 -1.281273
v 0.798242 2.777087 -1.090532
v 0.568223 2.971226 -1.255966
v 0.785228 2.971226 -1.070530
vt 0.107895 0.325926
vt 0.066367 0.316238
vt 0.047977 0.019231
vt 0.121756 0.413509
vt 0.061788 0.397441
vt 0.036383 0.288217
vt 0.149840 0.314684
vt 0.181723 0.397441
vt 0.093426 0.470087
vt 0.059682 0.454019
vt 0.017889 0.353542
vt 0.180963 0.285524
vt 0.225622 0.353542
vt 0.192923 0.246261
vt 0.241690 0.293575
vt 0.299691 0.324856
vt 0.286898 0.367539
vt 0.268060 0.521737
vt 0.307574 0.561251
vt 0.214082 0.615229
vt 0.322038 0.615229
vt 0.214082 0.507273
vt 0.307574 0.669207
vt 0.160104 0.521737
vt 0.268060 0.708722
vt 0.120589 0.561251
vt 0.214082 0.723185
vt 0.106126 0.615229
vt 0.160104 0.708722
vt 0.120589 0.669207
vt 0.176041 0.775993
vt 0.234340 0.760372
vt 0.248818 0.822236
vt 0.207323 0.834674
vt 0.288617 0.924192
vt 0.346916 0.908570
vt 0.349752 0.965148
vt 0.316946 0.980769
vt 0.737050 0.408502
vt 0.775897 0.424885
vt 0.749703 0.488794
vt 0.689736 0.488794
vt 0.964080 0.301570
vt 0.803918 0.439080
vt 0.793602 0.488794
vt 0.748035 0.532711
vt 0.689736 0.532711
vt 0.790713 0.532711
vt 0.743714 0.681749
vt 0.689736 0.681749
vt 0.783229 0.681749
vt 0.631437 0.532711
vt 0.635758 0.681749
vt 0.583196 0.532615
vt 0.584777 0.681653
vt 0.582585 0.488698
vt 0.629769 0.488794
vt 0.477009 0.263143
vt 0.462828 0.223879
vt 0.526681 0.179675
vt 0.526681 0.239642
vt 0.339458 0.454019
vt 0.446445 0.185032
vt 0.526681 0.119708
vt 0.570598 0.179675
vt 0.570598 0.237974
vt 0.485188 0.292302
vt 0.526681 0.283541
vt 0.570598 0.121376
vt 0.719636 0.179675
vt 0.719636 0.233653
vt 0.570598 0.280652
vt 0.526681 0.075809
vt 0.570598 0.078698
vt 0.719636 0.125697
vt 0.719636 0.273167
vt 0.535123 0.019231
vt 0.559836 0.022120
vt 0.719636 0.086182
vt 0.675761 0.908570
vt 0.675761 0.951253
vt 0.644503 0.951253
vt 0.644503 0.909758
vt 0.604895 0.965148
vt 0.560978 0.968484
vt 0.571741 0.911906
vt 0.596453 0.908570
vt 0.605660 0.777218
vt 0.597455 0.818747
vt 0.555947 0.807996
vt 0.555947 0.748028
vt 0.743170 0.881774
vt 0.597441 0.860692
vt 0.555947 0.867963
vt 0.512030 0.807996
vt 0.512030 0.749696
vt 0.512030 0.866295
vt 0.362992 0.807995
vt 0.362992 0.754017
vt 0.362992 0.861974
vt 0.519333 0.532518
vt 0.519333 0.681556
vt 0.519333 0.488601
vt 0.461034 0.532518
vt 0.465355 0.681556
vt 0.740029 0.908570
vt 0.740029 0.942315
vt 0.715317 0.942315
vt 0.715317 0.909509
vt 0.476857 0.911906
vt 0.520774 0.908570
vt 0.506897 0.967251
vt 0.475638 0.969907
vt 0.390298 0.908570
vt 0.434215 0.911459
vt 0.435434 0.972735
vt 0.404176 0.970435
vn 0.794202 -0.542923 -0.272907
vn 0.770705 -0.543626 -0.332393
vn 0.803406 -0.399190 -0.441799
vn 0.813968 -0.342835 -0.468956
vn 0.468741 -0.631634 -0.617511
vn 0.441494 -0.627915 -0.640941
vn 0.403804 -0.621596 -0.671238
vn 0.393093 -0.619565 -0.679425
vn 0.000865 -0.651705 -0.758472
vn 0.000805 -0.651688 -0.758487
vn 0.000718 -0.651662 -0.758509
vn 0.000691 -0.651654 -0.758516
vn -0.467293 -0.631830 -0.618408
vn -0.448128 -0.476234 -0.756560
vn -0.440096 -0.628104 -0.641716
vn -0.446799 -0.446042 -0.775511
vn -0.793425 -0.543336 -0.274340
vn -0.738891 -0.542071 -0.400248
vn -0.769851 -0.544023 -0.333719
vn -0.728064 -0.540819 -0.421234
vn -0.902413 -0.399343 0.161792
vn -0.963336 -0.267535 0.020231
vn -0.912179 -0.400171 0.088284
vn -0.980760 -0.195215 -0.000894
vn -0.792064 -0.203332 0.575579
vn -0.854574 -0.094152 0.510724
vn -0.826845 -0.192644 0.528409
vn -0.865499 -0.047594 0.498644
vn -0.477432 0.031783 0.878094
vn -0.495956 0.057197 0.866462
vn -0.493261 0.043302 0.868803
vn -0.499806 0.062643 0.863869
vn -0.000889 0.156626 0.987658
vn -0.000905 0.108166 0.994133
vn -0.000897 0.156637 0.987656
vn -0.000906 0.111167 0.993801
vn 0.475992 0.032545 0.878847
vn 0.491720 0.044018 0.869640
vn 0.494421 0.057706 0.867305
vn 0.498224 0.062837 0.864769
vn 0.791320 -0.202551 0.576876
vn 0.826113 -0.191819 0.529852
vn 0.853840 -0.092516 0.512248
vn 0.864563 -0.048209 0.500207
vn 0.902396 -0.398754 0.163329
vn 0.912294 -0.399561 0.089842
vn 0.963907 -0.265339 0.021886
vn 0.980470 -0.196669 0.000894
vn 0.435813 -0.879507 -0.191141
vn 0.743288 -0.667554 -0.043524
vn 0.000003 -0.793145 0.609033
vn 0.142127 -0.957770 -0.249955
vn -0.141134 -0.957892 -0.250049
vn -0.434754 -0.879959 -0.191473
vn -0.742256 -0.668654 -0.044254
vn -0.948684 -0.213193 0.233555
vn -0.758947 0.375601 0.531906
vn -0.267375 0.697592 0.664738
vn 0.265526 0.698113 0.664932
vn 0.757538 0.377337 0.532686
vn 0.948858 -0.211146 0.234705
vn 0.599091 0.784544 -0.159940
vn 0.438857 0.784544 -0.438058
vn 0.000000 1.000000 -0.000000
vn 0.161033 0.784544 -0.598798
vn -0.159940 0.784544 -0.599090
vn -0.438058 0.784544 -0.438857
vn -0.598798 0.784544 -0.161032
vn -0.599091 0.784544 0.159940
vn -0.438857 0.784544 0.438058
vn -0.161033 0.784544 0.598798
vn 0.159940 0.784544 0.599090
vn 0.438058 0.784544 0.438857
vn 0.598798 0.784544 0.161032
vn 0.000911 0.055926 -0.998434
vn 0.000911 0.055927 -0.998434
vn 0.000910 0.055927 -0.998435
vn 0.000910 0.055927 -0.998434
vn 0.500006 0.055926 -0.864214
vn 0.500006 0.055926 -0.864214
vn 0.500006 0.055926 -0.864214
vn 0.500006 0.055926 -0.864214
vn 0.864921 0.059977 -0.498311
vn 0.864921 0.059977 -0.498311
vn 0.865125 0.055926 -0.498429
vn 0.865125 0.055926 -0.498429
vn 0.998199 0.059977 0.000911
vn 0.998199 0.059977 0.000911
vn 0.998434 0.055927 0.000911
vn 0.998435 0.055927 0.000911
vn 0.864011 0.059977 0.499888
vn 0.864011 0.059977 0.499888
vn 0.864214 0.055926 0.500006
vn 0.864214 0.055926 0.500006
vn 0.498312 0.059977 0.864921
vn 0.498311 0.059977 0.864921
vn 0.498428 0.055926 0.865125
vn 0.498428 0.055926 0.865125
vn -0.000910 0.059977 0.998199
vn -0.000910 0.059977 0.998199
vn -0.000910 0.055927 0.998435
vn -0.000910 0.055927 0.998434
vn -0.499888 0.059977 0.864011
vn -0.499888 0.059977 0.864011
vn -0.500006 0.055926 0.864214
vn -0.500006 0.055926 0.864214
vn -0.864921 0.059977 0.498311
vn -0.864921 0.059977 0.498311
vn -0.865125 0.055926 0.498429
vn -0.865125 0.055926 0.498429
vn -0.998199 0.059977 -0.000911
vn -0.998199 0.059977 -0.000911
vn -0.998434 0.055927 -0.000911
vn -0.998435 0.055927 -0.000911
vn -0.864214 0.055926 -0.500006
vn -0.864214 0.055926 -0.500006
vn -0.864214 0.055926 -0.500006
vn -0.864214 0.055926 -0.500006
vn -0.498312 0.059977 -0.864921
vn -0.498311 0.059977 -0.864921
vn -0.498428 0.055926 -0.865125
vn -0.498428 0.055926 -0.865125
vn 0.644871 0.120981 -0.754656
vn 0.644871 0.120981 -0.754656
vn 0.644871 0.120980 -0.754656
vn 0.644871 0.120980 -0.754655
vn -0.847663 0.081124 -0.524296
vn -0.847663 0.081124 -0.524296
vn -0.847663 0.081124 -0.524296
vn -0.847662 0.081125 -0.524297
vn 0.016449 -0.999819 0.009517
vn 0.016481 -0.999816 0.009816
vn 0.016472 -0.999817 0.009733
vn 0.016524 -0.999811 0.010221
vn -0.688500 0.036215 0.724332
vn -0.687628 0.038578 0.725038
vn -0.688171 0.037109 0.724599
vn -0.686968 0.040358 0.725567
vn -0.181318 0.977813 -0.104904
vn -0.181461 0.977548 -0.107107
vn -0.181536 0.977406 -0.108270
vn -0.181805 0.976884 -0.112449
vn 0.468496 0.022340 -0.883183
vn 0.468334 0.021962 -0.883279
vn 0.468095 0.021409 -0.883419
vn 0.467776 0.020666 -0.883605
vn 0.000910 0.073174 -0.997319
vn 0.000910 0.073174 -0.997319
vn 0.000909 0.073174 -0.997319
vn 0.000909 0.073174 -0.997319
vn 0.075715 -0.988505 -0.130866
vn 0.078780 -0.989422 -0.121813
vn 0.080089 -0.989787 -0.117934
vn 0.085931 -0.991213 -0.100560
vn -0.742872 0.034386 -0.668549
vn -0.747130 0.047034 -0.663012
vn -0.744227 0.038362 -0.666824
vn -0.751137 0.059373 -0.657471
vn 0.095526 0.981638 -0.165108
vn 0.101416 0.983669 -0.148696
vn 0.099418 0.983013 -0.154279
vn 0.108953 0.985836 -0.127501
vn 0.952919 0.035067 0.301189
vn 0.953000 0.034699 0.300977
vn 0.953132 0.034096 0.300627
vn 0.953370 0.033003 0.299994
s 1
g polySurface1 pCylinder2
usemtl lambert2SG
f 1/6/1 2/2/2 42/11/3
f 42/11/3 2/2/2 41/5/4
s 2
f 2/2/5 3/1/6 41/5/7
f 41/5/7 3/1/6 40/4/8
s 3
f 3/1/9 4/7/10 40/4/11
f 40/4/11 4/7/10 39/8/12
s 4
f 5/12/13 50/13/14 4/7/15
f 4/7/15 50/13/14 39/8/16
s 5
f 6/14/17 49/15/18 5/12/19
f 5/12/19 49/15/18 50/13/20
s 6
f 7/40/21 48/41/22 6/39/23
f 6/39/23 48/41/22 49/42/24
s 7
f 8/44/25 47/45/26 7/40/27
f 7/40/27 47/45/26 48/41/28
s 8
f 9/89/29 46/90/30 8/88/31
f 8/88/31 46/90/30 47/91/32
s 9
f 10/93/33 45/94/34 9/89/35
f 9/89/35 45/94/34 46/90/36
s 10
f 10/67/37 11/58/38 45/68/39
f 45/68/39 11/58/38 44/61/40
s 11
f 11/58/41 12/59/42 44/61/43
f 44/61/43 12/59/42 43/60/44
s 12
f 12/59/45 1/63/46 43/60/47
f 43/60/47 1/63/46 42/64/48
s 13
f 2/2/49 1/6/50 25/3/51
f 3/1/52 2/2/49 25/3/51
f 4/7/53 3/1/52 25/3/51
f 5/12/54 4/7/53 25/3/51
f 6/14/55 5/12/54 25/3/51
f 7/40/56 6/39/55 25/43/51
f 8/44/57 7/40/56 25/43/51
f 9/89/58 8/88/57 25/92/51
f 10/93/59 9/89/58 25/92/51
f 11/58/60 10/67/59 25/62/51
f 12/59/61 11/58/60 25/62/51
f 1/63/50 12/59/61 25/62/51
s 14
f 13/18/62 14/19/63 26/20/64
f 14/19/63 15/21/65 26/20/64
f 15/21/65 16/23/66 26/20/64
f 16/23/66 17/25/67 26/20/64
f 17/25/67 18/27/68 26/20/64
f 18/27/68 19/29/69 26/20/64
f 19/29/69 20/30/70 26/20/64
f 20/30/70 21/28/71 26/20/64
f 21/28/71 22/26/72 26/20/64
f 22/26/72 23/24/73 26/20/64
f 23/24/73 24/22/74 26/20/64
f 24/22/74 13/18/62 26/20/64
s 15
f 28/101/75 27/54/76 15/102/77
f 15/102/77 27/54/76 16/55/78
s 16
f 29/104/79 28/101/80 14/105/81
f 14/105/81 28/101/80 15/102/82
s 1
f 30/69/83 29/74/84 13/75/85
f 13/75/85 29/74/84 14/79/86
s 12
f 31/65/87 30/69/88 24/70/89
f 24/70/89 30/69/88 13/75/90
s 11
f 32/66/91 31/65/92 23/71/93
f 23/71/93 31/65/92 24/70/94
s 10
f 33/72/95 32/66/96 22/76/97
f 22/76/97 32/66/96 23/71/98
s 9
f 34/95/99 33/97/100 21/98/101
f 21/98/101 33/97/100 22/100/102
s 8
f 35/96/103 34/95/104 20/99/105
f 20/99/105 34/95/104 21/98/106
s 7
f 36/46/107 35/48/108 19/49/109
f 19/49/109 35/48/108 20/51/110
s 6
f 37/47/111 36/46/112 18/50/113
f 18/50/113 36/46/112 19/49/114
s 25
f 38/52/115 37/47/116 17/53/117
f 17/53/117 37/47/116 18/50/118
s 4
f 27/54/119 38/52/120 16/55/121
f 16/55/121 38/52/120 17/53/122
s 27
f 55/107/123 57/108/124 56/106/125
f 56/106/125 57/108/124 58/109/126
s 1
f 42/64/3 41/73/4 30/69/83
f 30/69/83 41/73/4 29/74/84
s 12
f 43/60/47 42/64/48 31/65/87
f 31/65/87 42/64/48 30/69/88
s 11
f 44/61/43 43/60/44 32/66/91
f 32/66/91 43/60/44 31/65/92
s 10
f 45/68/39 44/61/40 33/72/95
f 33/72/95 44/61/40 32/66/96
s 9
f 46/90/36 45/94/34 34/95/99
f 34/95/99 45/94/34 33/97/100
s 8
f 47/91/32 46/90/30 35/96/103
f 35/96/103 46/90/30 34/95/104
s 7
f 48/41/28 47/45/26 36/46/107
f 36/46/107 47/45/26 35/48/108
s 6
f 49/42/24 48/41/22 37/47/111
f 37/47/111 48/41/22 36/46/112
s 28
f 51/81/127 53/82/128 52/80/129
f 52/80/129 53/82/128 54/83/130
s 4
f 39/56/16 50/57/14 27/54/119
f 27/54/119 50/57/14 38/52/120
s 29
f 49/15/131 51/16/132 50/13/133
f 50/13/133 51/16/132 52/17/134
s 30
f 37/111/135 53/112/136 49/110/137
f 49/110/137 53/112/136 51/113/138
s 31
f 37/31/139 38/32/140 53/34/141
f 53/34/141 38/32/140 54/33/142
s 32
f 38/114/143 50/115/144 54/117/145
f 54/117/145 50/115/144 52/116/146
s 33
f 28/101/147 40/103/148 27/54/149
f 27/54/149 40/103/148 39/56/150
s 34
f 41/5/151 40/4/152 56/10/153
f 56/10/153 40/4/152 55/9/154
s 35
f 28/85/155 57/86/156 40/84/157
f 40/84/157 57/86/156 55/87/158
s 36
f 29/36/159 58/37/160 28/35/161
f 28/35/161 58/37/160 57/38/162
s 37
f 29/74/163 41/73/164 58/78/165
f 58/78/165 41/73/164 56/77/166
